<?xml version="1.0" standalone="no"?>
<!DOCTYPE svg PUBLIC "-//W3C//DTD SVG 20010904//EN"
 "http://www.w3.org/TR/2001/REC-SVG-20010904/DTD/svg10.dtd">
<svg version="1.0" xmlns="http://www.w3.org/2000/svg"
 width="700.000000pt" height="700.000000pt" viewBox="0 0 700.000000 700.000000"
 preserveAspectRatio="xMidYMid meet">
<metadata>
Created by potrace 1.14, written by Peter Selinger 2001-2017
</metadata>
<g transform="translate(0.000000,700.000000) scale(0.100000,-0.100000)"
fill="#000000" stroke="none">
<path d="M3060 6530 c-25 -5 -97 -18 -160 -30 -63 -11 -135 -23 -160 -26 -56
-7 -79 -19 -78 -42 2 -32 -13 -317 -18 -346 -9 -52 -21 -64 -76 -71 -29 -4
-62 -9 -73 -11 -41 -8 -136 -25 -162 -30 -214 -37 -326 -57 -363 -64 -25 -6
-58 -12 -75 -14 -16 -3 -73 -12 -125 -21 -52 -10 -108 -19 -125 -22 -16 -2
-108 -43 -202 -91 -193 -96 -176 -76 -153 -186 6 -28 12 -60 14 -71 2 -11 11
-54 20 -95 8 -41 18 -91 21 -110 4 -19 8 -39 9 -45 10 -43 16 -74 20 -95 2
-14 18 -92 36 -175 36 -177 60 -292 64 -320 2 -11 8 -40 14 -65 6 -25 13 -63
16 -85 4 -22 9 -47 11 -55 4 -14 81 -383 91 -440 3 -14 20 -101 39 -193 19
-93 38 -183 41 -200 3 -18 10 -52 15 -77 14 -58 17 -74 29 -140 14 -75 14 -75
49 -245 34 -161 39 -184 47 -230 2 -16 7 -37 10 -47 3 -9 -18 -108 -46 -220
-28 -111 -53 -211 -55 -221 -2 -9 -11 -45 -20 -80 -9 -34 -18 -69 -20 -77 -2
-8 -33 -134 -70 -280 -36 -146 -68 -272 -70 -280 -2 -8 -29 -116 -60 -239 -31
-123 -52 -227 -48 -231 9 -8 68 -41 180 -102 l72 -39 148 26 c81 14 147 27
148 28 0 1 25 99 54 217 29 118 55 222 57 232 3 9 12 15 21 14 9 -2 55 5 102
15 119 24 195 33 188 23 -4 -8 -7 -60 -22 -379 -3 -49 -7 -133 -10 -185 -8
-148 -18 -338 -30 -580 -4 -74 -8 -149 -10 -167 -1 -18 3 -37 9 -42 7 -6 65
-39 129 -75 128 -70 116 -68 252 -40 39 8 88 18 110 21 22 3 41 6 42 7 3 3 14
180 28 466 3 63 8 140 10 170 2 30 7 116 11 190 3 74 7 153 9 175 1 22 3 57 4
77 1 39 6 42 71 53 19 3 71 12 115 20 44 8 96 17 115 20 44 7 376 66 450 80
14 2 117 20 230 40 113 19 216 37 230 40 14 3 39 7 55 10 17 3 41 7 55 10 14
3 39 7 55 9 17 3 61 10 98 17 37 6 69 10 71 8 2 -2 18 -47 36 -99 140 -409
230 -669 238 -691 7 -19 39 -42 109 -80 182 -101 164 -95 235 -80 35 7 70 14
78 16 114 20 150 28 150 35 0 7 -40 126 -190 560 -50 146 -104 302 -120 348
-15 45 -25 84 -21 87 4 2 30 7 57 10 63 9 235 66 228 77 -3 4 2 5 10 2 8 -3
24 0 36 6 24 13 25 1 -20 219 -17 84 -29 155 -27 158 3 2 15 6 28 8 13 3 34 7
45 9 21 4 233 105 244 116 3 3 31 18 63 34 48 24 58 33 54 50 -3 12 -23 111
-45 221 -23 110 -75 367 -117 570 -41 204 -77 379 -79 390 -3 11 -21 101 -41
200 -20 99 -39 189 -41 200 -2 11 -11 55 -20 98 -8 42 -17 87 -20 100 -2 12
-6 33 -9 47 -4 14 -8 36 -11 50 -2 14 -7 39 -11 55 -3 17 -7 37 -9 45 -1 8
-20 105 -43 215 -23 110 -43 209 -45 220 -3 16 -25 120 -81 395 -32 158 -75
373 -80 399 -3 19 -8 37 -10 41 -2 3 -7 29 -11 56 -3 27 -8 52 -10 55 -2 5
-55 258 -70 339 -3 14 -14 70 -25 125 -22 104 -25 118 -35 173 -5 24 -11 31
-23 28 -9 -2 -34 -7 -56 -11 -22 -4 -49 -9 -60 -11 -11 -2 -87 -15 -170 -29
-82 -15 -174 -30 -202 -36 -77 -13 -153 -27 -193 -33 -19 -4 -57 -11 -85 -16
-47 -9 -112 -20 -145 -25 -8 -1 -33 -5 -55 -9 -22 -4 -87 -16 -145 -26 -58
-11 -118 -22 -135 -25 -16 -3 -46 -8 -65 -11 -19 -3 -52 -9 -73 -14 -36 -8
-38 -7 -52 27 -8 19 -26 69 -40 111 -28 85 -18 76 -185 163 -41 22 -79 44 -84
49 -11 11 -22 11 -86 0z"/>
</g>
</svg>
